<svg xmlns="http://www.w3.org/2000/svg" version="1.1" xlink="http://www.w3.org/1999/xlink" xmlns:svgjs="http://svgjs.com/svgjs" width="100%" height="100%" preserveAspectRatio="xMidYMid meet" viewBox="0 0 174.2432098388672 147.0001678466797" overflow="visible"><defs id="SvgjsDefs1598"></defs><g id="SvgjsG1599" transform="scale(0.515970515970516)" opacity="1"><g id="SvgjsG1600" class="VwXS-Uars" transform="translate(67.5405013213489, 0) scale(0.7568976614271448)" stroke="#ffffff" stroke-width="2.6423651464703464px" light-content="false" non-strokable="false" fill="#f5a623"><circle cx="133.8" cy="133.8" r="133.8"></circle></g><g id="SvgjsG1601" class="W5B8LiDN1u" transform="translate(116.98014828857626, 49.43964696722736) scale(1.7290368338265312)" light-content="false" non-strokable="false" fill="#ffffff"><path d="M56.8 46h-1.7c.6-2 .9-3.9.9-6 0-5-1.8-9.9-5-13.7-.4-.4-1-.5-1.4-.1-.4.4-.5 1-.1 1.4C52.4 31.1 54 35.5 54 40c0 2.1-.3 4-1 6H8.2c-2.3-.8-4.6-2.9-5.8-4.7-.3-.3-.4-.7-.4-1.2 0-.7.3-1.3.8-1.8.5-.4 1.2-.6 1.9-.5 1 .1 1.7.2 2.3.2 1.2 0 2.3-1.2 4.6-3.6 3.2-3.3 8.1-8.4 14.8-11.5.5-.2.7-.8.5-1.3-.2-.5-.8-.7-1.3-.5-7.1 3.3-12.1 8.5-15.4 12-1.3 1.3-2.7 2.8-3.2 3-.5 0-1.1-.1-2-.2-1.3-.2-2.5.2-3.5 1S0 38.9 0 40.2c0 .9.2 1.7.7 2.4.8 1.1 2 2.4 3.5 3.5h-1C1.5 46 0 47.5 0 49.2c0 1.5 1 2.8 2.5 3.1 1.2.3 2.2 1.1 2.7 2.2l.1.1c.7 1.7 2.1 2.9 3.8 3.4 4.2 1.3 12 2 20.9 2s16.7-.8 20.9-2c1.7-.5 3.1-1.7 3.9-3.3l.1-.1c.5-1.1 1.5-1.9 2.7-2.2C59 52 60 50.7 60 49.2c0-1.7-1.5-3.2-3.2-3.2zm.3 4.5c-1.7.4-3.2 1.6-4 3.2l-.1.1c-.5 1.1-1.5 1.9-2.7 2.3-4 1.2-11.7 1.9-20.3 1.9s-16.3-.7-20.3-1.9c-1.2-.3-2.1-1.2-2.7-2.3v-.1c-.8-1.6-2.3-2.8-4-3.2-.6-.2-1-.7-1-1.3 0-.6.6-1.2 1.2-1.2h53.6c.7 0 1.2.6 1.2 1.2s-.4 1.1-.9 1.3zM16 51c0 .6-.4 1-1 1H9c-.6 0-1-.4-1-1s.4-1 1-1h6c.6 0 1 .4 1 1zm27 0c0 .6-.4 1-1 1H19c-.6 0-1-.4-1-1s.4-1 1-1h23c.6 0 1 .4 1 1zM26 32c0 3 1.2 5.8 3.4 7.9 2.1 2 4.8 3.1 7.6 3.1 6.4 0 11.1-5.5 11-11.7-.1-4.6-1.1-7.7-1.9-10-1-3-1.3-4.2.1-5.9.5-.7.6-1.5.2-2.2l2.2-2.2c.3.1.7.1 1 .1 3 0 5.5-2.5 5.5-5.5S52.5 0 49.5 0 44 2.5 44 5.5c0 .3 0 .6.1 1l-2.2 2.2c-.3-.1-.6-.2-.9-.2-.5 0-1 .2-1.4.6C32.7 16 26.7 22 26.1 30.9c-.1.3-.1.7-.1 1.1zM45.9 7.5c.3-.3.4-.6.3-1-.1-.4-.2-.7-.2-1C46 3.6 47.6 2 49.5 2c.6 0 1.1.2 1.6.4-1.5.6-2.7 1.7-2.8 1.9-.4.4-.4 1 0 1.4.3.3.9.5 1.4 0 .5-.4 1.8-1.5 3-1.7.2.5.3 1 .3 1.5C53 7.4 51.4 9 49.5 9c-.3 0-.6-.1-1-.2s-.7 0-1 .3L45 11.6 43.4 10l2.5-2.5zM28.1 31c.5-7.7 5.2-12.9 12.9-20.6l3.6 3.6c-2.2 2.6-1.4 4.9-.4 7.8.8 2.3 1.7 5.2 1.8 9.5.1 5.1-3.8 9.5-8.6 9.7-2.5.1-4.8-.8-6.6-2.5-1.8-1.7-2.8-4-2.8-6.5 0-.3 0-.6.1-1zm2.9 2c-.6 0-1-.4-1-1 0-4.4 2.2-9.6 5.3-12.7.4-.4 1-.4 1.4 0s.4 1 0 1.4C34 23.4 32 28.2 32 32c0 .6-.4 1-1 1zm-8.4-3.2c-2.9 2-6.9 7-8.7 9.7-1.2 1.7-2.9 3-5.1 3-1 0-1.9-.3-2.5-.9-.4-.4-.4-1 0-1.4s1-.4 1.4 0c.2.2.7.4 1.3.3 1.2-.1 2.3-.9 3.1-2.1 2-3 6.1-8.1 9.3-10.3.5-.3 1.1-.2 1.4.3.3.5.2 1.1-.2 1.4zM9.2 12.6C7 9.2 7 6.8 9.2 3.4c.3-.5.9-.6 1.4-.3.5.3.6.9.3 1.4-1.8 2.7-1.8 4.2 0 6.9 2.2 3.3 2.2 5.8 0 9.1-.2.4-.9.6-1.4.3-.5-.3-.6-.9-.3-1.4 1.7-2.6 1.7-4.2 0-6.8zm20 0c-2.2-3.3-2.2-5.8 0-9.1.3-.5.9-.6 1.4-.3.5.3.6.9.3 1.4-1.8 2.7-1.8 4.2 0 6.9.3.5.2 1.1-.3 1.4-.6.3-1.2.1-1.4-.3zm-10-3C17 6.3 17 3.8 19.2.5c.3-.5.9-.6 1.4-.3.5.3.6.9.3 1.4-1.8 2.7-1.8 4.2 0 6.9 2.2 3.3 2.2 5.8 0 9.1-.4.6-1.1.5-1.4.3-.5-.3-.6-.9-.3-1.4 1.7-2.7 1.7-4.3 0-6.9zM19 41c.6 0 1 .4 1 1s-.4 1-1 1-1-.4-1-1 .4-1 1-1zm8 0c.6 0 1 .4 1 1s-.4 1-1 1-1-.4-1-1 .4-1 1-1zm21 1c0 .6-.4 1-1 1s-1-.4-1-1 .4-1 1-1 1 .4 1 1zm3-3c-.6 0-1-.4-1-1s.4-1 1-1 1 .4 1 1-.4 1-1 1zm-13-2c0 .6-.4 1-1 1s-1-.4-1-1 .4-1 1-1 1 .4 1 1zm2-4c0-.6.4-1 1-1s1 .4 1 1-.4 1-1 1-1-.4-1-1zm-3-5c.6 0 1 .4 1 1s-.4 1-1 1-1-.4-1-1 .4-1 1-1zM22 38c0-.6.4-1 1-1s1 .4 1 1-.4 1-1 1-1-.4-1-1z"></path></g><g id="SvgjsG1602" class="text" transform="translate(167.58, 282.5903791559191) scale(1)" stroke="#000000" stroke-width="2px" light-content="false" fill="#ffffff"><path d="M-156.68 -41.51C-156.68 -42.65 -156.13 -43.42 -155.03 -43.8C-153.93 -44.19 -153.38 -44.81 -153.38 -45.67C-153.38 -46.57 -153.89 -47.02 -154.9 -47.02L-166.06 -47.02C-167.07 -47.02 -167.58 -46.57 -167.58 -45.67C-167.58 -44.81 -167.03 -44.19 -165.93 -43.8C-164.83 -43.42 -164.28 -42.65 -164.28 -41.51L-164.28 -4.82C-164.28 -3.68 -164.83 -2.91 -165.93 -2.53C-167.03 -2.14 -167.58 -1.53 -167.58 -0.69C-167.58 0.21 -167.08 0.66 -166.09 0.66L-154.9 0.66C-153.89 0.66 -153.38 0.21 -153.38 -0.69C-153.38 -1.53 -153.93 -2.14 -155.03 -2.53C-156.13 -2.91 -156.68 -3.69 -156.68 -4.85Z M-122.41 -44.18C-116.31 -44.18 -111.91 -42.02 -109.2 -37.71C-106.49 -33.39 -105.12 -28.55 -105.07 -23.18L-105.07 -22.98C-105.07 -17.72 -106.7 -12.92 -109.96 -8.59C-113.19 -4.31 -117.29 -2.18 -122.24 -2.18L-122.41 -2.18C-127.49 -2.22 -131.66 -4.28 -134.91 -8.34C-138.15 -12.4 -139.78 -17.35 -139.78 -23.18C-139.78 -29.01 -138.49 -33.97 -135.91 -38.04C-133.34 -42.11 -128.84 -44.16 -122.41 -44.18ZM-122.41 -48.41C-129.94 -48.32 -136.07 -46.03 -140.8 -41.52C-145.53 -37.02 -148.03 -30.95 -148.3 -23.31C-148.32 -22.89 -148.33 -22.49 -148.33 -22.09C-148.33 -14.96 -145.84 -9.17 -140.87 -4.72C-135.98 -0.34 -130.35 1.85 -123.99 1.85C-123.46 1.85 -122.95 1.84 -122.44 1.82C-115.48 1.42 -109.53 -0.92 -104.59 -5.22C-99.65 -9.51 -96.95 -15.52 -96.49 -23.25C-96.44 -23.86 -96.42 -24.48 -96.42 -25.1C-96.42 -31.92 -98.76 -37.43 -103.45 -41.64C-108.52 -46.15 -114.72 -48.41 -122.08 -48.41Z M-67.92 1.88C-65.92 1.88 -63.8 1.72 -61.55 1.4C-59.3 1.08 -56.98 0.43 -54.58 -0.56L-51.58 -8.98L-51.68 -9.91C-51.81 -10.7 -52.28 -11.09 -53.1 -11.09L-53.33 -11.09C-53.94 -10.98 -54.46 -10.53 -54.88 -9.74C-56.25 -6.81 -57.9 -4.89 -59.83 -3.96C-61.55 -3.17 -63.74 -2.77 -66.4 -2.77C-66.87 -2.77 -67.36 -2.78 -67.89 -2.81C-73.02 -3.05 -77.31 -5.33 -80.77 -9.66C-84.22 -13.98 -85.95 -18.48 -85.95 -23.15C-85.95 -30.46 -84.11 -35.74 -80.44 -39.01C-76.76 -42.28 -72.59 -43.92 -67.92 -43.92C-64.56 -43.92 -61.88 -43.44 -59.9 -42.5C-57.92 -41.55 -56.25 -39.62 -54.88 -36.72C-54.44 -35.86 -53.91 -35.41 -53.3 -35.37L-53.16 -35.37C-52.35 -35.37 -51.85 -35.75 -51.68 -36.52L-50.85 -43.85C-53.76 -45.7 -56.68 -46.92 -59.62 -47.5C-62.56 -48.08 -65.33 -48.38 -67.92 -48.38C-75.21 -48.38 -81.47 -46.07 -86.7 -41.46C-91.92 -36.85 -94.54 -30.74 -94.54 -23.15C-94.54 -15.35 -91.85 -9.23 -86.46 -4.79C-81.08 -0.34 -74.9 1.88 -67.92 1.88Z M-34.51 -41.51C-34.51 -42.63 -33.96 -43.39 -32.86 -43.79C-31.75 -44.18 -31.2 -44.81 -31.2 -45.67C-31.2 -46.57 -31.7 -47.02 -32.69 -47.02L-43.88 -47.02C-44.9 -47.02 -45.4 -46.57 -45.4 -45.67C-45.4 -44.81 -44.85 -44.18 -43.75 -43.79C-42.65 -43.39 -42.1 -42.63 -42.1 -41.51L-42.1 -4.82C-42.1 -3.68 -42.65 -2.91 -43.75 -2.53C-44.85 -2.14 -45.4 -1.53 -45.4 -0.69C-45.4 0.21 -44.9 0.66 -43.88 0.66L-32.69 0.66C-31.7 0.66 -31.2 0.21 -31.2 -0.69C-31.2 -1.53 -31.75 -2.14 -32.86 -2.53C-33.96 -2.91 -34.51 -3.68 -34.51 -4.82L-34.51 -22.35L-8.26 -22.35L-8.26 -4.82C-8.26 -3.68 -8.81 -2.91 -9.91 -2.53C-11.01 -2.14 -11.56 -1.53 -11.56 -0.69C-11.56 0.21 -11.05 0.66 -10.04 0.66L1.16 0.66C2.17 0.66 2.67 0.21 2.67 -0.69C2.67 -1.53 2.12 -2.14 1.01 -2.53C-0.1 -2.91 -0.66 -3.68 -0.66 -4.82L-0.66 -41.51C-0.66 -42.63 -0.1 -43.39 1.01 -43.79C2.12 -44.18 2.67 -44.81 2.67 -45.67C2.67 -46.57 2.17 -47.02 1.16 -47.02L-10.04 -47.02C-11.05 -47.02 -11.56 -46.57 -11.56 -45.67C-11.56 -44.81 -11.01 -44.18 -9.91 -43.79C-8.81 -43.39 -8.26 -42.63 -8.26 -41.51L-8.26 -26.71L-34.51 -26.71Z M19.58 -41.51C19.58 -42.65 20.13 -43.42 21.23 -43.8C22.33 -44.19 22.88 -44.81 22.88 -45.67C22.88 -46.57 22.38 -47.02 21.36 -47.02L10.2 -47.02C9.19 -47.02 8.68 -46.57 8.68 -45.67C8.68 -44.81 9.23 -44.19 10.34 -43.8C11.44 -43.42 11.99 -42.65 11.99 -41.51L11.99 -4.82C11.99 -3.68 11.44 -2.91 10.34 -2.53C9.23 -2.14 8.68 -1.53 8.68 -0.69C8.68 0.21 9.18 0.66 10.17 0.66L21.36 0.66C22.38 0.66 22.88 0.21 22.88 -0.69C22.88 -1.53 22.33 -2.14 21.23 -2.53C20.13 -2.91 19.58 -3.69 19.58 -4.85Z M42.37 -26.42L42.37 -41.51C42.37 -42.63 42.92 -43.39 44.02 -43.79C45.12 -44.18 45.67 -44.81 45.67 -45.67C45.67 -46.57 45.17 -47.02 44.18 -47.02L32.99 -47.02C31.97 -47.02 31.47 -46.57 31.47 -45.67C31.47 -44.81 32.02 -44.18 33.12 -43.79C34.22 -43.39 34.77 -42.63 34.77 -41.51L34.77 -4.82C34.77 -3.68 34.22 -2.91 33.12 -2.53C32.02 -2.14 31.47 -1.53 31.47 -0.69C31.47 0.21 31.97 0.66 32.99 0.66L44.18 0.66C45.17 0.66 45.67 0.21 45.67 -0.69C45.67 -1.53 45.12 -2.14 44.02 -2.53C42.92 -2.91 42.37 -3.68 42.37 -4.82L42.37 -21.13L61.78 -3.24C62.42 -2.66 62.74 -2.32 62.74 -2.21C62.72 -2.12 62.57 -1.96 62.31 -1.72C61.91 -1.36 61.72 -1.02 61.72 -0.69C61.72 0.21 62.22 0.66 63.23 0.66L74.43 0.66C75.42 0.66 75.91 0.21 75.91 -0.69C75.91 -1.29 75.61 -1.72 74.99 -2C74.37 -2.27 73.87 -2.61 73.47 -3L49.07 -25.49L61.95 -38.07C62.65 -38.76 63.44 -39.1 64.32 -39.1C64.92 -39.1 65.59 -38.94 66.34 -38.63L69.51 -37.31L71.49 -42.89C71.58 -43.11 71.62 -43.32 71.62 -43.52C71.62 -44.05 71.31 -44.5 70.7 -44.87L67.16 -46.59C66.64 -46.86 66.1 -46.99 65.55 -46.99C64.49 -46.99 63.49 -46.5 62.54 -45.54C61.35 -44.39 59.9 -43.01 58.18 -41.41Z M91.5 -3.76L91.5 -21.69L98.04 -21.69C99.07 -21.69 99.84 -21.13 100.35 -20.01C100.86 -18.89 101.58 -18.33 102.53 -18.33C103.52 -18.33 104.01 -18.78 104.01 -19.68L104.01 -28.07C104.01 -28.97 103.52 -29.42 102.53 -29.42C101.56 -29.42 100.86 -28.85 100.42 -27.72C99.98 -26.59 99.25 -26.02 98.24 -26.02L91.5 -26.02L91.5 -42.63L104.77 -42.63C105.83 -42.63 106.71 -42.26 107.42 -41.52C108.12 -40.79 109.01 -39.67 110.09 -38.17C110.84 -37.07 111.49 -36.52 112.04 -36.52C113.05 -36.52 113.56 -36.97 113.56 -37.87L113.56 -47.02L82.09 -47.02C81.08 -47.02 80.57 -46.57 80.57 -45.67C80.57 -44.81 81.12 -44.19 82.22 -43.8C83.32 -43.42 83.87 -42.65 83.87 -41.51L83.87 -4.82C83.87 -3.68 83.32 -2.91 82.22 -2.53C81.12 -2.14 80.57 -1.53 80.57 -0.69C80.57 0.21 81.04 0.66 81.99 0.66L113 0.66L115.54 -8.35C115.61 -8.57 115.64 -8.85 115.64 -9.18C115.64 -10.08 115.13 -10.53 114.12 -10.53C113.61 -10.53 113.07 -10.19 112.5 -9.51C111.77 -8.63 110.75 -7.45 109.41 -5.98C108.08 -4.5 106.54 -3.76 104.77 -3.76Z M161.97 -8.95L131.65 -47.02L122.7 -47.02C121.69 -47.02 121.19 -46.57 121.19 -45.67C121.19 -44.81 121.74 -44.18 122.84 -43.79C123.94 -43.39 124.49 -42.63 124.49 -41.51L124.49 -4.82C124.49 -3.68 123.94 -2.91 122.84 -2.53C121.74 -2.14 121.19 -1.53 121.19 -0.69C121.19 0.21 121.69 0.66 122.7 0.66L131.09 0.66C132.1 0.66 132.61 0.21 132.61 -0.69C132.61 -1.53 132.06 -2.14 130.96 -2.53C129.86 -2.91 129.31 -3.68 129.31 -4.82L129.31 -37.02L159.59 0.56L166.79 2.31L166.82 -41.51C166.82 -42.63 167.37 -43.39 168.47 -43.79C169.57 -44.18 170.12 -44.81 170.12 -45.67C170.12 -46.57 169.62 -47.02 168.6 -47.02L160.18 -47.02C159.19 -47.02 158.7 -46.57 158.7 -45.67C158.7 -44.81 159.24 -44.18 160.33 -43.79C161.42 -43.39 161.97 -42.63 161.97 -41.51Z"></path></g></g></svg>