<svg xmlns="http://www.w3.org/2000/svg" version="1.1" xlink="http://www.w3.org/1999/xlink" xmlns:svgjs="http://svgjs.com/svgjs" width="100%" height="100%" preserveAspectRatio="xMidYMid meet" viewBox="0 0 146.945068359375 146.945068359375" overflow="visible"><defs id="SvgjsDefs1713"></defs><g id="SvgjsG1714" transform="scale(0.7254906173536438)" opacity="1"><g id="SvgjsG1715" class="CeEnsc-rW" transform="translate(0, 0) scale(0.7568976614271448)" light-content="false" non-strokable="false" fill="#000000"><circle cx="133.8" cy="133.8" r="133.8"></circle></g><g id="SvgjsG1716" class="XIxkz24ihJ" transform="translate(49.43964696722736, 49.43964696722736) scale(1.7290368338265312)" light-content="true" non-strokable="false" fill="#ffffff"><path d="M56.8 46h-1.7c.6-2 .9-3.9.9-6 0-5-1.8-9.9-5-13.7-.4-.4-1-.5-1.4-.1-.4.4-.5 1-.1 1.4C52.4 31.1 54 35.5 54 40c0 2.1-.3 4-1 6H8.2c-2.3-.8-4.6-2.9-5.8-4.7-.3-.3-.4-.7-.4-1.2 0-.7.3-1.3.8-1.8.5-.4 1.2-.6 1.9-.5 1 .1 1.7.2 2.3.2 1.2 0 2.3-1.2 4.6-3.6 3.2-3.3 8.1-8.4 14.8-11.5.5-.2.7-.8.5-1.3-.2-.5-.8-.7-1.3-.5-7.1 3.3-12.1 8.5-15.4 12-1.3 1.3-2.7 2.8-3.2 3-.5 0-1.1-.1-2-.2-1.3-.2-2.5.2-3.5 1S0 38.9 0 40.2c0 .9.2 1.7.7 2.4.8 1.1 2 2.4 3.5 3.5h-1C1.5 46 0 47.5 0 49.2c0 1.5 1 2.8 2.5 3.1 1.2.3 2.2 1.1 2.7 2.2l.1.1c.7 1.7 2.1 2.9 3.8 3.4 4.2 1.3 12 2 20.9 2s16.7-.8 20.9-2c1.7-.5 3.1-1.7 3.9-3.3l.1-.1c.5-1.1 1.5-1.9 2.7-2.2C59 52 60 50.7 60 49.2c0-1.7-1.5-3.2-3.2-3.2zm.3 4.5c-1.7.4-3.2 1.6-4 3.2l-.1.1c-.5 1.1-1.5 1.9-2.7 2.3-4 1.2-11.7 1.9-20.3 1.9s-16.3-.7-20.3-1.9c-1.2-.3-2.1-1.2-2.7-2.3v-.1c-.8-1.6-2.3-2.8-4-3.2-.6-.2-1-.7-1-1.3 0-.6.6-1.2 1.2-1.2h53.6c.7 0 1.2.6 1.2 1.2s-.4 1.1-.9 1.3zM16 51c0 .6-.4 1-1 1H9c-.6 0-1-.4-1-1s.4-1 1-1h6c.6 0 1 .4 1 1zm27 0c0 .6-.4 1-1 1H19c-.6 0-1-.4-1-1s.4-1 1-1h23c.6 0 1 .4 1 1zM26 32c0 3 1.2 5.8 3.4 7.9 2.1 2 4.8 3.1 7.6 3.1 6.4 0 11.1-5.5 11-11.7-.1-4.6-1.1-7.7-1.9-10-1-3-1.3-4.2.1-5.9.5-.7.6-1.5.2-2.2l2.2-2.2c.3.1.7.1 1 .1 3 0 5.5-2.5 5.5-5.5S52.5 0 49.5 0 44 2.5 44 5.5c0 .3 0 .6.1 1l-2.2 2.2c-.3-.1-.6-.2-.9-.2-.5 0-1 .2-1.4.6C32.7 16 26.7 22 26.1 30.9c-.1.3-.1.7-.1 1.1zM45.9 7.5c.3-.3.4-.6.3-1-.1-.4-.2-.7-.2-1C46 3.6 47.6 2 49.5 2c.6 0 1.1.2 1.6.4-1.5.6-2.7 1.7-2.8 1.9-.4.4-.4 1 0 1.4.3.3.9.5 1.4 0 .5-.4 1.8-1.5 3-1.7.2.5.3 1 .3 1.5C53 7.4 51.4 9 49.5 9c-.3 0-.6-.1-1-.2s-.7 0-1 .3L45 11.6 43.4 10l2.5-2.5zM28.1 31c.5-7.7 5.2-12.9 12.9-20.6l3.6 3.6c-2.2 2.6-1.4 4.9-.4 7.8.8 2.3 1.7 5.2 1.8 9.5.1 5.1-3.8 9.5-8.6 9.7-2.5.1-4.8-.8-6.6-2.5-1.8-1.7-2.8-4-2.8-6.5 0-.3 0-.6.1-1zm2.9 2c-.6 0-1-.4-1-1 0-4.4 2.2-9.6 5.3-12.7.4-.4 1-.4 1.4 0s.4 1 0 1.4C34 23.4 32 28.2 32 32c0 .6-.4 1-1 1zm-8.4-3.2c-2.9 2-6.9 7-8.7 9.7-1.2 1.7-2.9 3-5.1 3-1 0-1.9-.3-2.5-.9-.4-.4-.4-1 0-1.4s1-.4 1.4 0c.2.2.7.4 1.3.3 1.2-.1 2.3-.9 3.1-2.1 2-3 6.1-8.1 9.3-10.3.5-.3 1.1-.2 1.4.3.3.5.2 1.1-.2 1.4zM9.2 12.6C7 9.2 7 6.8 9.2 3.4c.3-.5.9-.6 1.4-.3.5.3.6.9.3 1.4-1.8 2.7-1.8 4.2 0 6.9 2.2 3.3 2.2 5.8 0 9.1-.2.4-.9.6-1.4.3-.5-.3-.6-.9-.3-1.4 1.7-2.6 1.7-4.2 0-6.8zm20 0c-2.2-3.3-2.2-5.8 0-9.1.3-.5.9-.6 1.4-.3.5.3.6.9.3 1.4-1.8 2.7-1.8 4.2 0 6.9.3.5.2 1.1-.3 1.4-.6.3-1.2.1-1.4-.3zm-10-3C17 6.3 17 3.8 19.2.5c.3-.5.9-.6 1.4-.3.5.3.6.9.3 1.4-1.8 2.7-1.8 4.2 0 6.9 2.2 3.3 2.2 5.8 0 9.1-.4.6-1.1.5-1.4.3-.5-.3-.6-.9-.3-1.4 1.7-2.7 1.7-4.3 0-6.9zM19 41c.6 0 1 .4 1 1s-.4 1-1 1-1-.4-1-1 .4-1 1-1zm8 0c.6 0 1 .4 1 1s-.4 1-1 1-1-.4-1-1 .4-1 1-1zm21 1c0 .6-.4 1-1 1s-1-.4-1-1 .4-1 1-1 1 .4 1 1zm3-3c-.6 0-1-.4-1-1s.4-1 1-1 1 .4 1 1-.4 1-1 1zm-13-2c0 .6-.4 1-1 1s-1-.4-1-1 .4-1 1-1 1 .4 1 1zm2-4c0-.6.4-1 1-1s1 .4 1 1-.4 1-1 1-1-.4-1-1zm-3-5c.6 0 1 .4 1 1s-.4 1-1 1-1-.4-1-1 .4-1 1-1zM22 38c0-.6.4-1 1-1s1 .4 1 1-.4 1-1 1-1-.4-1-1z"></path></g></g></svg>